<?xml version="1.0" standalone="no"?>
<!DOCTYPE svg PUBLIC "-//W3C//DTD SVG 20010904//EN"
 "http://www.w3.org/TR/2001/REC-SVG-20010904/DTD/svg10.dtd">
<svg version="1.0" xmlns="http://www.w3.org/2000/svg"
 width="1004.000000pt" height="1280.000000pt" viewBox="0 0 1004.000000 1280.000000"
 preserveAspectRatio="xMidYMid meet">
<metadata>
Created by potrace 1.15, written by Peter Selinger 2001-2017
</metadata>
<g transform="translate(0.000000,1280.000000) scale(0.100000,-0.100000)"
fill="#000000" stroke="none">
<path d="M3073 12702 l-453 -96 0 -368 0 -368 288 -385 287 -384 228 -1 c175
0 227 -3 227 -12 0 -7 -30 -103 -67 -213 l-68 -200 -296 -410 -297 -410 -120
-5 -120 -5 -425 -500 c-234 -275 -424 -501 -422 -503 1 -2 175 20 386 48 l384
51 154 -51 c85 -28 155 -49 157 -48 1 2 13 101 27 221 13 119 26 219 28 221 2
1 113 62 245 135 l242 131 380 0 c354 0 381 -1 386 -17 2 -10 12 -55 21 -101
16 -78 15 -93 -4 -295 -12 -116 -23 -224 -25 -238 -4 -21 28 -66 180 -257
l185 -231 -135 -203 -136 -203 -25 -152 -26 -153 125 -149 c140 -166 108 -145
314 -203 45 -13 82 -25 82 -28 -1 -3 -42 -38 -93 -77 l-93 -73 -212 -589 -211
-588 -161 -229 -160 -229 -324 -255 -325 -255 -428 -149 c-235 -82 -478 -166
-540 -188 l-112 -40 -256 -279 c-141 -153 -257 -279 -258 -279 -1 0 -54 -9
-117 -20 -86 -15 -161 -20 -295 -20 l-180 0 -505 -289 -505 -288 -3 -92 c-3
-87 -2 -91 19 -91 21 0 21 -1 3 -46 -3 -6 105 -57 256 -119 143 -60 260 -111
260 -115 0 -3 -94 -152 -209 -330 -193 -300 -207 -326 -187 -332 11 -4 237
-48 501 -98 264 -49 490 -92 502 -95 18 -4 37 13 104 95 46 55 84 98 86 96 2
-2 -2 -53 -8 -114 l-12 -111 -46 -10 c-25 -5 -188 -37 -361 -72 -173 -34 -318
-65 -323 -69 -4 -3 95 -98 220 -211 126 -112 245 -219 266 -238 l38 -34 123
122 123 122 354 -23 c195 -14 356 -21 359 -17 3 4 36 111 74 237 l68 230 534
134 c506 126 533 132 538 113 2 -11 12 -98 22 -193 10 -96 23 -179 29 -186 5
-7 212 -49 477 -97 258 -46 468 -87 468 -91 0 -3 -6 -8 -13 -10 -7 -2 -151
-77 -320 -167 l-308 -163 17 -27 c10 -14 82 -123 162 -243 l144 -216 125 125
125 126 282 -22 c154 -12 293 -21 308 -21 26 0 34 12 118 180 50 99 93 180 97
180 4 0 91 -28 193 -62 l186 -61 185 -348 186 -349 332 -261 332 -261 312
-120 312 -120 315 97 315 97 345 364 c190 200 379 400 420 444 l75 81 351 93
350 93 337 264 337 264 0 312 0 312 70 256 c39 141 70 261 69 268 0 11 -895
767 -916 774 -6 2 -59 -25 -118 -61 -60 -36 -112 -63 -116 -61 -4 3 -142 187
-308 409 l-301 404 0 438 0 439 140 162 140 162 124 273 c109 241 122 274 107
284 -9 6 -211 133 -448 283 l-433 273 0 77 1 76 349 185 350 185 0 123 0 122
-162 0 -163 0 118 118 117 117 0 121 0 121 70 187 70 186 0 128 -1 127 -279
209 -280 208 0 178 0 177 196 284 c108 156 198 286 201 288 2 3 56 -5 121 -17
93 -18 500 -62 573 -62 12 0 20 -30 39 -147 13 -82 26 -151 29 -155 4 -4 91
65 194 153 l187 161 -2 160 -3 160 -210 117 -210 117 -187 583 c-103 322 -191
587 -196 590 -4 3 -146 102 -315 219 -169 116 -311 212 -316 212 -5 0 -69 -70
-142 -155 -73 -85 -136 -155 -140 -155 -5 0 -121 101 -629 550 l-156 138 -312
-144 -312 -143 -322 -46 -323 -47 -297 125 -298 124 -2 -155 -3 -156 -313
-179 -314 -180 -127 22 c-90 15 -135 19 -152 12 -21 -7 -256 -188 -619 -475
-35 -28 -60 -44 -55 -37 5 8 201 248 437 533 235 285 428 522 428 526 0 5 -9
17 -20 27 -19 18 -25 16 -216 -69 -183 -81 -197 -86 -209 -69 -7 10 -132 176
-277 370 -192 256 -268 351 -283 351 -11 0 -224 -43 -472 -96z m742 -347 c221
-296 283 -374 297 -369 10 3 77 32 150 65 72 32 133 57 135 55 2 -2 -170 -216
-384 -474 l-388 -471 -195 0 -195 -1 -273 364 -272 363 2 334 3 334 405 86
c223 48 412 87 420 87 9 1 135 -160 295 -373z m3677 -351 c199 -176 379 -335
399 -352 l36 -31 129 150 c71 83 134 157 141 166 10 13 53 -13 300 -185 l288
-199 186 -583 c103 -320 191 -586 195 -590 5 -5 100 -59 212 -120 l202 -112 0
-122 0 -121 -117 -100 c-64 -55 -127 -108 -139 -117 l-21 -17 -18 117 c-10 64
-21 120 -24 124 -3 4 -130 18 -281 32 -151 14 -309 33 -350 42 -41 8 -94 19
-118 23 l-42 8 -220 -318 -220 -317 0 -200 0 -200 280 -208 279 -209 1 -112 0
-113 -70 -186 -70 -187 0 -111 0 -111 -162 -162 -163 -163 213 0 213 0 -3 -67
-3 -68 -350 -186 -350 -187 0 -113 0 -114 437 -275 c241 -151 438 -278 438
-282 0 -4 -49 -115 -108 -246 l-109 -239 -141 -164 -142 -164 0 -477 c0 -262
4 -478 9 -480 4 -1 151 -194 326 -428 174 -234 322 -424 328 -422 7 2 60 32
118 68 59 35 110 64 113 64 4 0 787 -655 849 -709 4 -4 -24 -123 -63 -264
l-70 -257 0 -292 0 -293 -317 -249 -316 -249 -351 -93 c-193 -52 -352 -94
-352 -94 -1 0 -189 -198 -418 -440 -230 -242 -425 -444 -434 -449 -9 -5 -145
-48 -301 -96 l-283 -87 -296 113 -296 114 -325 255 -324 255 -184 345 c-101
190 -189 350 -196 356 -14 14 -455 161 -459 154 -2 -3 -44 -88 -94 -190 l-92
-186 -303 24 -303 23 -108 -108 c-59 -59 -109 -105 -111 -102 -17 18 -227 340
-227 347 0 4 163 95 363 201 199 106 365 196 369 200 4 4 -237 51 -537 106
l-545 98 -5 31 c-3 17 -14 114 -25 215 -11 102 -22 186 -23 187 -1 0 -265 -65
-586 -145 -377 -95 -587 -152 -593 -161 -4 -8 -35 -109 -69 -225 -34 -115 -64
-213 -68 -216 -3 -4 -159 4 -346 17 l-340 23 -112 -111 c-105 -104 -113 -111
-130 -96 -102 89 -369 331 -371 336 -1 4 143 36 320 71 178 35 325 66 327 68
7 5 67 493 61 493 -3 0 -68 -76 -145 -169 -88 -107 -146 -168 -155 -166 -8 2
-213 41 -455 86 -242 46 -442 84 -443 85 -2 1 90 148 204 325 114 178 203 324
198 326 -5 2 -135 57 -288 121 l-279 117 2 75 c1 41 3 75 4 76 1 1 216 124
477 273 l475 271 165 0 c129 0 196 6 309 25 79 13 147 28 151 32 80 89 478
524 494 538 12 12 247 98 554 205 l533 185 332 261 332 260 122 175 c68 95
143 203 168 239 45 65 84 168 393 1030 l69 195 132 107 c72 59 132 111 133
115 0 4 -82 32 -183 60 -100 29 -186 56 -189 60 -4 5 -53 63 -109 131 l-103
123 21 127 22 127 145 218 c86 130 142 223 137 230 -4 7 -86 111 -183 232 -97
121 -179 225 -182 231 -4 5 4 112 16 237 l23 226 -26 133 -27 133 -412 3 -412
2 -273 -149 -272 -149 -21 -191 c-12 -105 -24 -194 -27 -197 -3 -4 -60 12
-127 34 l-121 41 -296 -40 c-163 -22 -302 -39 -308 -37 -6 2 152 196 353 431
l364 428 117 -2 116 -1 307 423 307 424 71 213 72 213 296 232 c164 128 314
246 335 262 l39 29 135 -22 135 -22 339 192 338 193 1 129 c0 98 3 127 13 123
6 -3 125 -53 264 -111 l252 -106 338 49 338 49 290 136 c160 74 293 134 297
133 3 -1 170 -146 370 -323z"/>
<path d="M2233 12136 l-91 -123 194 -169 c107 -93 199 -170 203 -172 4 -1 18
5 30 15 l22 18 -125 275 c-69 151 -129 276 -133 277 -4 1 -49 -53 -100 -121z
m161 -155 c36 -80 64 -146 62 -148 -2 -2 -53 39 -114 92 l-110 97 41 58 c23
32 45 55 49 51 3 -3 36 -71 72 -150z"/>
</g>
</svg>
