 <svg version="1.0" xmlns="http://www.w3.org/2000/svg"
width="1004.000000pt" height="1280.000000pt" viewBox="0 0 1004.000000 1280.000000"
preserveAspectRatio="xMidYMid meet">
<g transform="translate(0.000000,1280.000000) scale(0.100000,-0.100000)"
fill="#008000" fill-rule="evenodd" stroke="none">
<path d="M3073 12702 l-453 -96 0 -368 0 -368 288 -385 287 -384 228 -1 c175
0 227 -3 227 -12 0 -7 -30 -103 -67 -213 l-68 -200 -296 -410 -297 -410 -120
-5 -120 -5 -425 -500 c-234 -275 -424 -501 -422 -503 1 -2 175 20 386 48 l384
51 154 -51 c85 -28 155 -49 157 -48 1 2 13 101 27 221 13 119 26 219 28 221 2
1 113 62 245 135 l242 131 380 0 c354 0 381 -1 386 -17 2 -10 12 -55 21 -101
16 -78 15 -93 -4 -295 -12 -116 -23 -224 -25 -238 -4 -21 28 -66 180 -257
l185 -231 -135 -203 -136 -203 -25 -152 -26 -153 125 -149 c140 -166 108 -145
314 -203 45 -13 82 -25 82 -28 -1 -3 -42 -38 -93 -77 l-93 -73 -212 -589 -211
-588 -161 -229 -160 -229 -324 -255 -325 -255 -428 -149 c-235 -82 -478 -166
-540 -188 l-112 -40 -256 -279 c-141 -153 -257 -279 -258 -279 -1 0 -54 -9
-117 -20 -86 -15 -161 -20 -295 -20 l-180 0 -505 -289 -505 -288 -3 -92 c-3
-87 -2 -91 19 -91 21 0 21 -1 3 -46 -3 -6 105 -57 256 -119 143 -60 260 -111
260 -115 0 -3 -94 -152 -209 -330 -193 -300 -207 -326 -187 -332 11 -4 237
-48 501 -98 264 -49 490 -92 502 -95 18 -4 37 13 104 95 46 55 84 98 86 96 2
-2 -2 -53 -8 -114 l-12 -111 -46 -10 c-25 -5 -188 -37 -361 -72 -173 -34 -318
-65 -323 -69 -4 -3 95 -98 220 -211 126 -112 245 -219 266 -238 l38 -34 123
122 123 122 354 -23 c195 -14 356 -21 359 -17 3 4 36 111 74 237 l68 230 534
134 c506 126 533 132 538 113 2 -11 12 -98 22 -193 10 -96 23 -179 29 -186 5
-7 212 -49 477 -97 258 -46 468 -87 468 -91 0 -3 -6 -8 -13 -10 -7 -2 -151
-77 -320 -167 l-308 -163 17 -27 c10 -14 82 -123 162 -243 l144 -216 125 125
125 126 282 -22 c154 -12 293 -21 308 -21 26 0 34 12 118 180 50 99 93 180 97
180 4 0 91 -28 193 -62 l186 -61 185 -348 186 -349 332 -261 332 -261 312
-120 312 -120 315 97 315 97 345 364 c190 200 379 400 420 444 l75 81 351 93
350 93 337 264 337 264 0 312 0 312 70 256 c39 141 70 261 69 268 0 11 -895
767 -916 774 -6 2 -59 -25 -118 -61 -60 -36 -112 -63 -116 -61 -4 3 -142 187
-308 409 l-301 404 0 438 0 439 140 162 140 162 124 273 c109 241 122 274 107
284 -9 6 -211 133 -448 283 l-433 273 0 77 1 76 349 185 350 185 0 123 0 122
-162 0 -163 0 118 118 117 117 0 121 0 121 70 187 70 186 0 128 -1 127 -279
209 -280 208 0 178 0 177 196 284 c108 156 198 286 201 288 2 3 56 -5 121 -17
93 -18 500 -62 573 -62 12 0 20 -30 39 -147 13 -82 26 -151 29 -155 4 -4 91
65 194 153 l187 161 -2 160 -3 160 -210 117 -210 117 -187 583 c-103 322 -191
587 -196 590 -4 3 -146 102 -315 219 -169 116 -311 212 -316 212 -5 0 -69 -70
-142 -155 -73 -85 -136 -155 -140 -155 -5 0 -121 101 -629 550 l-156 138 -312
-144 -312 -143 -322 -46 -323 -47 -297 125 -298 124 -2 -155 -3 -156 -313
-179 -314 -180 -127 22 c-90 15 -135 19 -152 12 -21 -7 -256 -188 -619 -475
-35 -28 -60 -44 -55 -37 5 8 201 248 437 533 235 285 428 522 428 526 0 5 -9
17 -20 27 -19 18 -25 16 -216 -69 -183 -81 -197 -86 -209 -69 -7 10 -132 176
-277 370 -192 256 -268 351 -283 351 -11 0 -224 -43 -472 -96z m742 -347 c221
-296 283 -374 297" />
</g>
</svg>
